<svg width="1512" height="982" viewBox="0 0 1512 982" fill="none" xmlns="http://www.w3.org/2000/svg">
<g clip-path="url(#clip0_19_108)">
<path d="M1512 0H0V982H1512V0Z" fill="#3F3F3F"/>
<g style="mix-blend-mode:overlay">
<path d="M1195.26 115.057C1201.59 96.8469 1189.69 81.0222 1172.2 75.5096C1167.87 74.1443 1164.31 76.0133 1162.2 79.0029C1151.15 78.1621 1138.45 88.5463 1134.49 97.6337C1127.75 113.103 1136.18 130.442 1152.53 134.973C1169.79 139.76 1189.24 132.397 1195.26 115.057ZM1147.73 99.5577C1150.69 94.0506 1155.69 91.5615 1160.93 89.2525C1161.93 91.352 1163.89 93.0123 1167.02 93.5964C1176.14 95.2935 1184.18 102.708 1180.27 112.208C1176.16 122.178 1162.97 124.218 1153.97 119.936C1146.53 116.401 1143.81 106.818 1147.73 99.5577Z" fill="white"/>
<path d="M1237.46 119.639C1230.73 135.11 1239.16 152.448 1255.5 156.978C1272.76 161.765 1292.21 154.401 1298.24 137.061C1304.57 118.851 1292.66 103.025 1275.17 97.5118C1270.85 96.147 1267.28 98.0161 1265.18 101.007C1254.13 100.168 1241.43 110.552 1237.46 119.639ZM1283.25 134.214C1279.13 144.183 1265.94 146.223 1256.95 141.942C1249.51 138.407 1246.79 128.824 1250.7 121.563C1253.66 116.056 1258.67 113.567 1263.91 111.259C1264.9 113.358 1266.87 115.019 1270 115.601C1279.12 117.299 1287.16 124.714 1283.25 134.214Z" fill="white"/>
<path d="M1219.27 97.3676C1236.52 102.151 1255.97 94.7883 1262 77.4487C1268.33 59.2398 1256.43 43.4145 1238.94 37.902C1234.61 36.5367 1231.05 38.4031 1228.94 41.3927C1217.89 40.553 1205.19 50.9387 1201.23 60.0235C1194.49 75.4968 1202.92 92.8365 1219.27 97.3676ZM1214.47 61.9475C1217.43 56.4404 1222.44 53.9524 1227.68 51.6434C1228.67 53.7429 1230.64 55.4032 1233.76 55.9862C1242.89 57.6844 1250.93 65.0988 1247.01 74.5994C1242.9 84.576 1229.71 86.6116 1220.72 82.329C1213.27 78.7887 1210.55 69.2108 1214.47 61.9475Z" fill="white"/>
<path d="M1210.73 133.827C1206.4 132.461 1202.85 134.326 1200.74 137.319C1189.69 136.478 1176.99 146.863 1173.02 155.953C1166.29 171.424 1174.72 188.762 1191.06 193.292C1208.33 198.081 1227.76 190.715 1233.8 173.375C1240.13 155.163 1228.22 139.34 1210.73 133.827ZM1218.81 170.523C1214.69 180.498 1201.5 182.538 1192.51 178.248C1185.06 174.713 1182.34 165.135 1186.26 157.873C1189.23 152.361 1194.23 149.877 1199.47 147.565C1200.47 149.662 1202.43 151.325 1205.55 151.913C1214.68 153.608 1222.72 161.024 1218.81 170.523Z" fill="white"/>
<path d="M1150.93 213.117C1164.83 221.341 1179.92 225.778 1195.66 227.367C1196.46 227.614 1197.33 227.781 1198.3 227.821C1200.7 227.929 1203.1 227.971 1205.5 227.97C1218.14 228.331 1231.1 227.059 1244.12 224.568C1263.71 220.823 1282.54 213.723 1299.46 203.106C1316.1 192.66 1327.14 178.807 1339.89 164.638C1341.86 162.448 1338.63 159.492 1336.65 161.698C1326.55 172.918 1313.12 180.768 1300.25 188.811C1298.69 189.788 1297.11 190.731 1295.51 191.654C1313.22 172.526 1326.39 146.08 1329.31 121.901C1335.1 73.8801 1304 32.4672 1257.39 17.7953C1211.37 3.31555 1155.92 16.0094 1125.46 56.0294C1104.75 83.2441 1095.58 120.342 1103.17 151.821C1109.43 177.779 1127.54 199.281 1150.93 213.117ZM1127.99 82.6372C1146.32 43.8378 1189.65 22.0075 1232.58 28.3339C1279.24 35.211 1313.48 67.7644 1313.26 113.418C1313.21 122.031 1312.26 125.899 1309.32 135.029C1304.43 150.237 1297.23 165.231 1286.43 177.827C1264.13 203.842 1231.56 212.875 1198.26 210.597C1195.44 210.409 1193.31 211.312 1191.85 212.791C1185.9 211.734 1180.14 210.169 1174.71 207.952C1153.94 199.481 1136.19 184.747 1125.91 165.703C1112.23 140.346 1115.42 109.238 1127.99 82.6372Z" fill="white"/>
<path d="M1222.6 124.701C1224.54 123.554 1226.38 121.401 1226.88 119.289C1227.97 114.693 1225.42 110.104 1220.5 109.101C1218.24 108.643 1215.61 109.098 1213.58 110.295C1211.63 111.441 1209.8 113.598 1209.3 115.711C1208.21 120.304 1210.76 124.896 1215.69 125.899C1217.93 126.356 1220.57 125.896 1222.6 124.701Z" fill="white"/>
</g>
<g style="mix-blend-mode:overlay">
<path d="M127.47 306.028C131.501 321.346 133.544 337.342 136.919 352.826C140.536 369.423 144.564 385.932 148.921 402.355C149.796 405.65 153.372 407.094 156.709 406.461C209.889 396.378 264.859 386.858 316.102 369.448C326.821 365.805 338.822 362.014 348.493 356.191C357.627 350.686 354.895 342.037 352.646 333.814C345.623 308.114 338.297 282.502 330.708 256.95C329.732 253.666 325.926 251.514 322.333 252.537C291.654 261.254 260.796 269.383 229.773 276.902C200.144 284.082 170.22 290.008 140.561 297.006C197.614 272.2 254.4 246.756 312.58 224.368C316.858 222.719 318.396 219.187 316.544 215.263C312.654 207.027 309.662 196.476 304.084 189.177C299.102 182.669 292.191 185.009 285.532 187.899C265.761 196.475 246.197 205.489 226.642 214.499C189.272 231.715 151.987 249.087 114.387 265.852C110.849 267.426 110.491 271.807 111.951 274.635C117.141 284.722 124.649 295.297 127.47 306.028ZM175.426 252.341C174.585 254.626 173.811 256.915 173.005 259.103C170.974 264.613 168.548 270.616 168.116 276.45C159.471 280.889 150.867 285.405 142.314 290.023C144.972 285.689 146.984 280.81 149.318 276.413C152.143 271.077 155.746 265.929 157.882 260.326C163.73 257.673 169.579 255.012 175.426 252.341ZM141 274.411C139.018 279.785 136.669 285.626 136.152 291.327C133.438 285.526 130.149 279.82 127.044 274.199C132.627 271.711 138.202 269.223 143.775 266.715C142.798 269.306 141.916 271.922 141 274.411ZM319.338 266.755C325.431 287.132 331.378 307.552 337.111 328.025C338.257 332.131 341.91 339.233 341.376 343.429C340.968 346.724 341.152 345.864 337.257 347.712C334.934 348.81 332.587 349.846 330.22 350.851C319.063 355.597 307.465 359.41 295.796 362.84C251.355 375.88 205.362 384.964 159.815 393.751C155.943 379.103 152.328 364.388 149.05 349.6C147.211 341.314 145.418 333.008 143.827 324.669C142.925 319.939 142.485 314.803 141.756 309.793C201.6 299.794 261.099 283.446 319.338 266.755ZM299.145 209.259C300.151 211.306 301.162 213.351 302.16 215.397C299.516 216.468 296.866 217.547 294.223 218.63C295.089 216.849 295.94 215.078 296.832 213.383C297.565 212.001 298.347 210.629 299.145 209.259ZM283.211 203.066C285.932 201.825 290.046 199.211 293.631 198.129C291.566 202.401 290.099 207.084 288.518 211.38C287.196 214.96 285.705 218.747 284.706 222.559C274.134 226.961 263.621 231.457 253.157 236.053C255.564 231.938 257.46 227.394 259.641 223.282C261.895 219.022 264.636 214.884 266.736 210.542C268.26 209.854 269.776 209.16 271.3 208.472C275.276 206.684 279.25 204.875 283.211 203.066ZM252.922 216.804C252.385 218.321 251.862 219.823 251.327 221.283C249.249 226.922 246.743 233.078 246.394 239.043C246.398 239.046 246.398 239.051 246.399 239.055C236.146 243.614 225.941 248.27 215.795 253.037C217.767 249.393 219.442 245.524 221.327 241.973C223.847 237.214 226.979 232.61 229.139 227.698C235.62 224.721 242.098 221.733 248.591 218.772C250.032 218.11 251.478 217.462 252.922 216.804ZM215.094 234.142C214.381 236.113 213.711 238.077 213.012 239.968C211.055 245.261 208.756 251.005 208.19 256.622C197.231 261.839 186.336 267.187 175.508 272.666C177.604 268.881 179.351 264.819 181.318 261.106C183.996 256.048 187.358 251.157 189.52 245.893C195.842 242.99 202.162 240.087 208.477 237.179C210.68 236.164 212.891 235.156 215.094 234.142Z" fill="#FFFEFE"/>
<path d="M169.323 333.824C202.025 325.088 234.777 316.747 267.703 308.808C275.082 307.029 272.01 296.182 264.66 298.162C232.046 306.953 198.801 314.759 167.378 327.023C162.996 328.732 164.498 335.115 169.323 333.824Z" fill="#FFFEFE"/>
<path d="M171.402 356.424C181.292 355.895 191.318 352.661 200.953 350.468C211.534 348.058 222.546 346.104 232.759 342.488C240.095 339.891 237.358 329.314 229.588 331.396C219.058 334.214 208.734 338.032 198.314 341.238C188.936 344.128 178.386 346.512 170.017 351.577C167.794 352.92 168.538 356.576 171.402 356.424Z" fill="#FFFEFE"/>
</g>
<path d="M801.302 658.377C837.169 652.271 872.769 644.6 908.432 637.612C925.49 634.269 942.55 630.926 959.608 627.586C974.945 624.586 991.219 622.516 1005.83 617.349C1023.84 610.985 1029.52 599.3 1030.1 585.943C1052.5 589.534 1074.91 593.946 1096.59 599.589C1105.72 601.965 1113.61 594.592 1111.98 587.259C1103.42 548.845 1094.4 510.056 1081.64 472.511C1078.99 464.736 1068.14 462.172 1060.81 467.642C1045.2 479.296 1026.52 490.756 1011.67 504.026C1010.41 500.274 1009.12 496.514 1007.78 492.74C1006.21 488.313 1001.18 485.455 995.566 486.598C990.602 487.612 985.626 488.584 980.662 489.585C1000.33 473.796 1010.81 449.894 1002.78 427.538C997.162 411.916 983.265 399.869 965.078 394.232C942.839 387.349 919.302 392.447 897.496 398.725C884.838 402.372 882.721 412.276 887.127 419.203C873.421 430.334 863.893 444.586 863.962 460.438C858.497 450.614 848.235 443.02 835.986 439.38C818.375 434.146 799.912 438.166 782.709 443.101C772.58 446.005 770.928 453.954 774.513 459.466C761.108 470.317 752.636 484.831 757.231 500.776C761.034 513.955 773.289 522.751 787.888 526.871C782.034 528.198 776.211 529.583 770.456 531.101C756.263 534.848 760.547 551.288 774.352 550.484C780.567 584.278 783.942 618.67 789.654 652.524C790.412 657.012 796.538 659.187 801.302 658.377ZM1010.04 591.317C1006.81 602.502 990.423 604.292 979.128 606.533C921.67 617.901 863.716 628.103 806.536 640.536C798.957 610.11 790.376 579.691 783.59 549.13C818.698 543.398 853.659 534.014 888.29 526.632C922.466 519.347 956.66 512.11 990.899 505.05C997.707 524.155 1004.35 543.287 1007.48 563.183C1008.85 571.918 1012.58 582.484 1010.04 591.317ZM1061.72 493.612C1069.39 520.661 1077.24 547.622 1084.09 574.843C1066.18 570.029 1028.11 559.259 1026.94 559.17C1024.33 546.217 1021 533.581 1017.16 520.997C1026.71 516.149 1056.09 497.352 1061.72 493.612ZM883.825 462.587C882.005 448.987 890.532 436.442 902.441 426.392C904.662 426.265 907.038 425.811 909.547 424.904C931.698 416.906 967.789 408.892 977.744 434.636C985.886 455.699 967.712 479.547 943.656 486.549C921.04 493.126 886.865 485.295 883.825 462.587ZM868.494 478.535C875.378 491.396 889.445 500.189 905.626 504.468C898.174 505.925 890.723 507.391 883.269 508.842C872.078 511.019 860.74 513.025 849.369 515.025C861.044 505.408 868.381 492.113 868.494 478.535ZM771.807 494.394C769.997 483.384 777.024 473.215 786.731 465.096C788.469 464.99 790.326 464.631 792.291 463.92C810.457 457.385 840.264 451.243 846.989 473.069C852.088 489.603 838.116 507.466 819.426 512.966C801.718 518.181 774.721 512.127 771.807 494.394Z" fill="#8C8C8C"/>
</g>
<defs>
<clipPath id="clip0_19_108">
<rect width="1512" height="982" fill="white"/>
</clipPath>
</defs>
</svg>
