<svg width="179" height="32" viewBox="0 0 179 32" fill="none" xmlns="http://www.w3.org/2000/svg">
<path d="M0.409912 0.800017H7.01079L9.95385 22.176H10.0379L12.981 0.800017H19.5819V30.6667H15.2093V8.05335H15.1252L11.7617 30.6667H7.89371L4.5302 8.05335H4.44612V30.6667H0.409912V0.800017ZM29.7181 31.0934C27.4478 31.0934 25.7099 30.4391 24.5047 29.1307C23.2993 27.8223 22.6967 25.9734 22.6967 23.584V7.88269C22.6967 5.49335 23.2993 3.64446 24.5047 2.33602C25.7099 1.02757 27.4478 0.373352 29.7181 0.373352C31.9885 0.373352 33.7262 1.02757 34.9315 2.33602C36.1368 3.64446 36.7394 5.49335 36.7394 7.88269V23.584C36.7394 25.9734 36.1368 27.8223 34.9315 29.1307C33.7262 30.4391 31.9885 31.0934 29.7181 31.0934ZM29.7181 26.8267C31.3158 26.8267 32.1145 25.8454 32.1145 23.8827V7.58402C32.1145 5.62135 31.3158 4.64002 29.7181 4.64002C28.1205 4.64002 27.3216 5.62135 27.3216 7.58402V23.8827C27.3216 25.8454 28.1205 26.8267 29.7181 26.8267ZM38.5657 0.800017H43.2326L46.2597 23.968H46.3438L49.371 0.800017H53.6174L49.1606 30.6667H43.0224L38.5657 0.800017ZM55.8387 0.800017H60.4636V30.6667H55.8387V0.800017ZM63.9273 0.800017H76.5405V5.06669H68.5521V12.96H74.9007V17.2267H68.5521V26.4H76.5405V30.6667H63.9273V0.800017ZM85.2954 31.0934C83.053 31.0934 81.3572 30.4534 80.2081 29.1734C79.0589 27.865 78.4843 26.0018 78.4843 23.584V21.8774H82.8569V23.9254C82.8569 25.8596 83.6557 26.8267 85.2534 26.8267C86.0381 26.8267 86.6268 26.5991 87.0192 26.144C87.4397 25.6604 87.6499 24.8924 87.6499 23.84C87.6499 22.5884 87.3695 21.4934 86.809 20.5547C86.2484 19.5876 85.2113 18.4356 83.6978 17.0987C81.7917 15.392 80.4604 13.856 79.7036 12.4907C78.9468 11.0969 78.5684 9.53246 78.5684 7.79735C78.5684 5.43646 79.157 3.61602 80.3341 2.33602C81.5115 1.02757 83.2212 0.373352 85.4636 0.373352C87.6779 0.373352 89.3456 1.02757 90.4668 2.33602C91.6159 3.61602 92.1906 5.46491 92.1906 7.88269V9.12002H87.8181V7.58402C87.8181 6.56002 87.6217 5.82046 87.2294 5.36535C86.837 4.88179 86.2624 4.64002 85.5056 4.64002C83.964 4.64002 83.1932 5.59291 83.1932 7.49869C83.1932 8.57958 83.4735 9.58935 84.0341 10.528C84.6227 11.4667 85.6738 12.6045 87.1874 13.9414C89.1214 15.648 90.4528 17.1983 91.1816 18.592C91.9102 19.9858 92.2747 21.6214 92.2747 23.4987C92.2747 25.945 91.672 27.8223 90.4668 29.1307C89.2896 30.4391 87.5658 31.0934 85.2954 31.0934ZM94.4954 8.26669H103.955V11.4667H97.964V17.3867H102.725V20.5867H97.964V27.4667H103.955V30.6667H94.4954V8.26669ZM108.631 8.26669H113.329L116.924 30.6667H113.456L112.825 26.2187V26.2827H108.883L108.253 30.6667H105.036L108.631 8.26669ZM112.415 23.2427L110.87 12.1707H110.807L109.293 23.2427H112.415ZM118.607 8.26669H123.747C125.534 8.26669 126.837 8.69335 127.657 9.54669C128.477 10.3787 128.887 11.6694 128.887 13.4187V14.7947C128.887 17.12 128.13 18.592 126.616 19.2107V19.2747C127.457 19.5307 128.046 20.0534 128.382 20.8427C128.74 21.632 128.918 22.688 128.918 24.0107V27.9467C128.918 28.5867 128.939 29.1094 128.981 29.5147C129.023 29.8987 129.128 30.2827 129.297 30.6667H125.765C125.639 30.304 125.555 29.9627 125.513 29.6427C125.471 29.3227 125.45 28.7467 125.45 27.9147V23.8187C125.45 22.7947 125.281 22.08 124.945 21.6747C124.63 21.2694 124.073 21.0667 123.274 21.0667H122.076V30.6667H118.607V8.26669ZM123.337 17.8667C124.031 17.8667 124.546 17.6854 124.882 17.3227C125.239 16.96 125.418 16.352 125.418 15.4987V13.7707C125.418 12.96 125.271 12.3734 124.977 12.0107C124.703 11.648 124.262 11.4667 123.652 11.4667H122.076V17.8667H123.337ZM136.213 30.9867C134.552 30.9867 133.28 30.5067 132.397 29.5467C131.535 28.5867 131.104 27.232 131.104 25.4827V13.4507C131.104 11.7014 131.535 10.3467 132.397 9.38669C133.28 8.42669 134.552 7.94669 136.213 7.94669C137.873 7.94669 139.135 8.42669 139.997 9.38669C140.88 10.3467 141.321 11.7014 141.321 13.4507V15.8187H138.042V13.2267C138.042 11.84 137.464 11.1467 136.307 11.1467C135.151 11.1467 134.573 11.84 134.573 13.2267V25.7387C134.573 27.104 135.151 27.7867 136.307 27.7867C137.464 27.7867 138.042 27.104 138.042 25.7387V22.3147H141.321V25.4827C141.321 27.232 140.88 28.5867 139.997 29.5467C139.135 30.5067 137.873 30.9867 136.213 30.9867ZM143.396 8.26669H146.864V17.3867H150.585V8.26669H154.054V30.6667H150.585V20.5867H146.864V30.6667H143.396V8.26669ZM156.637 8.26669H166.097V11.4667H160.105V17.3867H164.867V20.5867H160.105V27.4667H166.097V30.6667H156.637V8.26669ZM168.092 8.26669H173.232C175.019 8.26669 176.322 8.69335 177.142 9.54669C177.962 10.3787 178.372 11.6694 178.372 13.4187V14.7947C178.372 17.12 177.615 18.592 176.102 19.2107V19.2747C176.943 19.5307 177.531 20.0534 177.868 20.8427C178.225 21.632 178.404 22.688 178.404 24.0107V27.9467C178.404 28.5867 178.425 29.1094 178.467 29.5147C178.509 29.8987 178.614 30.2827 178.782 30.6667H175.25C175.124 30.304 175.04 29.9627 174.998 29.6427C174.956 29.3227 174.935 28.7467 174.935 27.9147V23.8187C174.935 22.7947 174.767 22.08 174.431 21.6747C174.115 21.2694 173.558 21.0667 172.759 21.0667H171.561V30.6667H168.092V8.26669ZM172.822 17.8667C173.516 17.8667 174.031 17.6854 174.367 17.3227C174.725 16.96 174.904 16.352 174.904 15.4987V13.7707C174.904 12.96 174.756 12.3734 174.462 12.0107C174.189 11.648 173.747 11.4667 173.138 11.4667H171.561V17.8667H172.822Z" fill="white"/>
</svg>
