<svg width="51" height="51" viewBox="0 0 51 51" fill="none" xmlns="http://www.w3.org/2000/svg">
<path d="M45.3025 42.5581L32.368 29.6239C34.3751 27.029 35.4609 23.8564 35.4609 20.5195C35.4609 16.5252 33.902 12.7799 31.0831 9.95597C28.2642 7.13204 24.5089 5.57812 20.5195 5.57812C16.5302 5.57812 12.7749 7.13702 9.95597 9.95597C7.13204 12.7749 5.57812 16.5252 5.57812 20.5195C5.57812 24.5089 7.13702 28.2642 9.95597 31.0831C12.7749 33.9071 16.5252 35.4609 20.5195 35.4609C23.8564 35.4609 27.024 34.3751 29.6188 32.3731L42.5533 45.3025C42.591 45.3404 42.636 45.3705 42.6856 45.3909C42.7352 45.4115 42.7884 45.422 42.842 45.422C42.8955 45.422 42.9488 45.4115 42.9984 45.3909C43.048 45.3705 43.093 45.3404 43.131 45.3025L45.3025 43.1358C45.3404 43.0978 45.3705 43.0528 45.3909 43.0032C45.4115 42.9536 45.422 42.9006 45.422 42.8471C45.422 42.7933 45.4115 42.7403 45.3909 42.6907C45.3705 42.6411 45.3404 42.5961 45.3025 42.5581ZM28.4087 28.4087C26.2969 30.5153 23.4979 31.6758 20.5195 31.6758C17.5412 31.6758 14.7422 30.5153 12.6305 28.4087C10.5237 26.2969 9.36329 23.4979 9.36329 20.5195C9.36329 17.5412 10.5237 14.7372 12.6305 12.6305C14.7422 10.5237 17.5412 9.36329 20.5195 9.36329C23.4979 9.36329 26.3019 10.5188 28.4087 12.6305C30.5153 14.7422 31.6758 17.5412 31.6758 20.5195C31.6758 23.4979 30.5153 26.3019 28.4087 28.4087Z" fill="#8C8C8C"/>
</svg>
